<svg xmlns="http://www.w3.org/2000/svg" width="128" height="128" class="icon" viewBox="0 0 1024 1024"><path fill="#1e2028" d="M945.23 551.385H1024v78.769h-78.77zm0-78.77H1024v78.77h-78.77zm0-78.769H1024v78.77h-78.77zm-78.768 315.077h78.769v78.77h-78.77zm0-78.77h78.769v78.77h-78.77z"/><path fill="#38b269" d="M866.462 551.385h78.769v78.769h-78.77zm0-78.77h78.769v78.77h-78.77zm0-78.769h78.769v78.77h-78.77z"/><path fill="#1e2028" d="M866.462 315.077h78.769v78.77h-78.77zm0-78.77h78.769v78.77h-78.77zm-78.77 551.385h78.77v78.77h-78.77z"/><path fill="#38b269" d="M787.692 708.923h78.77v78.77h-78.77zm0-78.77h78.77v78.77h-78.77z"/><path fill="#60ef9a" d="M787.692 551.385h78.77v78.769h-78.77zm0-78.77h78.77v78.77h-78.77zm0-78.769h78.77v78.77h-78.77z"/><path fill="#38b269" d="M787.692 315.077h78.77v78.77h-78.77zm0-78.77h78.77v78.77h-78.77z"/><path fill="#1e2028" d="M787.692 157.538h78.77v78.77h-78.77zm-78.769 708.924h78.77v78.769h-78.77z"/><path fill="#38b269" d="M708.923 787.692h78.77v78.77h-78.77z"/><path fill="#60ef9a" d="M708.923 708.923h78.77v78.77h-78.77zm0-78.77h78.77v78.77h-78.77zm0-78.768h78.77v78.769h-78.77zm0-78.77h78.77v78.77h-78.77zm0-78.769h78.77v78.77h-78.77zm0-78.77h78.77v78.77h-78.77zm0-78.768h78.77v78.769h-78.77z"/><path fill="#38b269" d="M708.923 157.538h78.77v78.77h-78.77z"/><path fill="#1e2028" d="M708.923 78.77h78.77v78.768h-78.77zm-78.77 787.692h78.77v78.769h-78.77z"/><path fill="#38b269" d="M630.154 787.692h78.77v78.77h-78.77z"/><path fill="#60ef9a" d="M630.154 708.923h78.77v78.77h-78.77zm0-78.77h78.77v78.77h-78.77zm0-78.768h78.77v78.769h-78.77z"/><path fill="#1e2028" d="M630.154 472.615h78.77v78.77h-78.77zm0-78.769h78.77v78.77h-78.77z"/><path fill="#60ef9a" d="M630.154 315.077h78.77v78.77h-78.77zm0-78.77h78.77v78.77h-78.77zm0-78.769h78.77v78.77h-78.77z"/><path fill="#1e2028" d="M630.154 78.77h78.77v78.768h-78.77zm-78.77 866.46h78.77V1024h-78.77z"/><path fill="#38b269" d="M551.385 866.462h78.769v78.769h-78.77z"/><path fill="#60ef9a" d="M551.385 787.692h78.769v78.77h-78.77zm0-78.769h78.769v78.77h-78.77z"/><path fill="#1e2028" d="M551.385 630.154h78.769v78.77h-78.77z"/><path fill="#60ef9a" d="M551.385 551.385h78.769v78.769h-78.77zm0-78.77h78.769v78.77h-78.77zm0-78.769h78.769v78.77h-78.77zm0-78.77h78.769v78.77h-78.77zm0-78.768h78.769v78.769h-78.77zm0-78.77h78.769v78.77h-78.77zm0-78.769h78.769v78.77h-78.77z"/><path fill="#1e2028" d="M551.385 0h78.769v78.77h-78.77zm-78.77 945.23h78.77V1024h-78.77z"/><path fill="#38b269" d="M472.615 866.462h78.77v78.769h-78.77z"/><path fill="#60ef9a" d="M472.615 787.692h78.77v78.77h-78.77zm0-78.769h78.77v78.77h-78.77z"/><path fill="#1e2028" d="M472.615 630.154h78.77v78.77h-78.77z"/><path fill="#60ef9a" d="M472.615 551.385h78.77v78.769h-78.77zm0-78.77h78.77v78.77h-78.77zm0-78.769h78.77v78.77h-78.77zm0-78.77h78.77v78.77h-78.77zm0-78.768h78.77v78.769h-78.77zm0-78.77h78.77v78.77h-78.77zm0-78.769h78.77v78.77h-78.77z"/><path fill="#1e2028" d="M472.615 0h78.77v78.77h-78.77zm-78.769 945.23h78.77V1024h-78.77z"/><path fill="#aaf2c7" d="M393.846 866.462h78.77v78.769h-78.77z"/><path fill="#60ef9a" d="M393.846 787.692h78.77v78.77h-78.77zm0-78.769h78.77v78.77h-78.77z"/><path fill="#1e2028" d="M393.846 630.154h78.77v78.77h-78.77z"/><path fill="#60ef9a" d="M393.846 551.385h78.77v78.769h-78.77zm0-78.77h78.77v78.77h-78.77zm0-78.769h78.77v78.77h-78.77zm0-78.77h78.77v78.77h-78.77zm0-78.768h78.77v78.769h-78.77z"/><path fill="#fff" d="M393.846 157.538h78.77v78.77h-78.77z"/><path fill="#aaf2c7" d="M393.846 78.77h78.77v78.768h-78.77z"/><path fill="#1e2028" d="M393.846 0h78.77v78.77h-78.77zm-78.77 866.462h78.77v78.769h-78.77z"/><path fill="#aaf2c7" d="M315.077 787.692h78.77v78.77h-78.77z"/><path fill="#60ef9a" d="M315.077 708.923h78.77v78.77h-78.77zm0-78.77h78.77v78.77h-78.77zm0-78.768h78.77v78.769h-78.77z"/><path fill="#1e2028" d="M315.077 472.615h78.77v78.77h-78.77zm0-78.769h78.77v78.77h-78.77z"/><path fill="#60ef9a" d="M315.077 315.077h78.77v78.77h-78.77z"/><path fill="#fff" d="M315.077 236.308h78.77v78.769h-78.77z"/><path fill="#aaf2c7" d="M315.077 157.538h78.77v78.77h-78.77z"/><path fill="#1e2028" d="M315.077 78.77h78.77v78.768h-78.77zm-78.77 787.692h78.77v78.769h-78.77z"/><path fill="#aaf2c7" d="M236.308 787.692h78.769v78.77h-78.77z"/><path fill="#60ef9a" d="M236.308 708.923h78.769v78.77h-78.77zm0-78.77h78.769v78.77h-78.77zm0-78.768h78.769v78.769h-78.77zm0-78.77h78.769v78.77h-78.77zm0-78.769h78.769v78.77h-78.77zm0-78.77h78.769v78.77h-78.77zm0-78.768h78.769v78.769h-78.77z"/><path fill="#aaf2c7" d="M236.308 157.538h78.769v78.77h-78.77z"/><path fill="#1e2028" d="M236.308 78.77h78.769v78.768h-78.77zm-78.77 708.922h78.77v78.77h-78.77z"/><path fill="#aaf2c7" d="M157.538 708.923h78.77v78.77h-78.77zm0-78.77h78.77v78.77h-78.77z"/><path fill="#60ef9a" d="M157.538 551.385h78.77v78.769h-78.77zm0-78.77h78.77v78.77h-78.77zm0-78.769h78.77v78.77h-78.77z"/><path fill="#aaf2c7" d="M157.538 315.077h78.77v78.77h-78.77zm0-78.77h78.77v78.77h-78.77z"/><path fill="#1e2028" d="M157.538 157.538h78.77v78.77h-78.77zM78.77 708.923h78.77v78.77H78.77zm0-78.77h78.77v78.77H78.77z"/><path fill="#aaf2c7" d="M78.77 551.385h78.768v78.769H78.77zm0-78.77h78.768v78.77H78.77zm0-78.769h78.768v78.77H78.77z"/><path fill="#1e2028" d="M78.77 315.077h78.768v78.77H78.77zm0-78.77h78.768v78.77H78.77zM0 551.386h78.77v78.769H0zm0-78.77h78.77v78.77H0zm0-78.769h78.77v78.77H0z"/></svg>